<?xml version="1.0" standalone="no"?><svg xmlns="http://www.w3.org/2000/svg" viewBox="0 0 1440 320"><path fill="#b9c50e" fill-opacity="1" d="M0,288L12.6,288C25.3,288,51,288,76,261.3C101.1,235,126,181,152,133.3C176.8,85,202,43,227,26.7C252.6,11,278,21,303,53.3C328.4,85,354,139,379,144C404.2,149,429,107,455,96C480,85,505,107,531,133.3C555.8,160,581,192,606,202.7C631.6,213,657,203,682,170.7C707.4,139,733,85,758,85.3C783.2,85,808,139,834,181.3C858.9,224,884,256,909,256C934.7,256,960,224,985,176C1010.5,128,1036,64,1061,74.7C1086.3,85,1112,171,1137,176C1162.1,181,1187,107,1213,112C1237.9,117,1263,203,1288,213.3C1313.7,224,1339,160,1364,117.3C1389.5,75,1415,53,1427,42.7L1440,32L1440,320L1427.4,320C1414.7,320,1389,320,1364,320C1338.9,320,1314,320,1288,320C1263.2,320,1238,320,1213,320C1187.4,320,1162,320,1137,320C1111.6,320,1086,320,1061,320C1035.8,320,1011,320,985,320C960,320,935,320,909,320C884.2,320,859,320,834,320C808.4,320,783,320,758,320C732.6,320,707,320,682,320C656.8,320,632,320,606,320C581.1,320,556,320,531,320C505.3,320,480,320,455,320C429.5,320,404,320,379,320C353.7,320,328,320,303,320C277.9,320,253,320,227,320C202.1,320,177,320,152,320C126.3,320,101,320,76,320C50.5,320,25,320,13,320L0,320Z"></path></svg>